# xmcd CD database file
#
# Track frame offsets:
#	150
#	17566
#	34637
#	56461
#	75730
#	92636
#	107117
#	123089
#	134751
#	151755
#	167788
#
# Disc length: 2422 seconds
#
# Revision: 1
# Processed by: cddbd v1.5PL3 Copyright (c) Steve Scherf et al.
# Submitted via: CDex 1.50
#
DISCID=8009740b
DTITLE=Blues Company - III.
DYEAR=2003
DGENRE=Blues
TTITLE0=A sebesség ördöge
TTITLE1=Bengália
TTITLE2=Kispirics odabasz
TTITLE3=2003
TTITLE4=Változó világ
TTITLE5=Nekem mindegy
TTITLE6=Repül a nehéz kõ
TTITLE7=Csorog a nyál
TTITLE8=A börtön ablakában
TTITLE9=Ki nem szarja le
TTITLE10=Vedel az ország
EXTD=YEAR: 2003
EXTT0=
EXTT1=
EXTT2=
EXTT3=
EXTT4=
EXTT5=
EXTT6=
EXTT7=
EXTT8=
EXTT9=
EXTT10=
PLAYORDER=
